<?xml version="1.0" standalone="no"?>
<!DOCTYPE svg PUBLIC "-//W3C//DTD SVG 20010904//EN"
 "http://www.w3.org/TR/2001/REC-SVG-20010904/DTD/svg10.dtd">
<svg version="1.0" xmlns="http://www.w3.org/2000/svg"
 width="1024.000000pt" height="1024.000000pt" viewBox="100 100 884.000000 724.000000"
 preserveAspectRatio="xMidYMid meet">

<g transform="translate(0.000000,1024.000000) scale(0.100000,-0.100000)"
fill="#FFD700" stroke="none">
<path d="M5930 7531 c-74 -11 -164 -38 -220 -66 -97 -50 -181 -116 -514 -409
-320 -282 -408 -357 -439 -374 -29 -15 -77 -18 -452 -22 -466 -6 -453 -4 -495
-73 -34 -55 -20 -127 35 -177 l27 -25 461 0 462 0 75 36 c90 43 110 59 489
388 393 342 427 370 488 398 119 55 259 52 388 -6 81 -37 139 -91 209 -195 63
-94 91 -117 150 -123 50 -6 102 25 130 79 18 32 19 41 8 90 -14 61 -64 151
-126 227 -91 111 -241 204 -378 236 -80 18 -226 26 -298 16z"/>
<path d="M3707 7070 c-49 -39 -45 -130 9 -165 16 -10 48 -15 102 -15 65 0 84
4 105 20 46 36 48 119 5 160 -18 17 -35 20 -109 20 -72 0 -91 -3 -112 -20z"/>
<path d="M4239 7062 c-37 -33 -43 -84 -15 -126 24 -37 54 -46 151 -46 81 0 84
1 109 31 37 44 36 105 -2 142 -26 25 -34 27 -120 27 -86 0 -94 -2 -123 -28z"/>
<path d="M5808 6871 c-62 -20 -133 -58 -189 -102 -94 -73 -93 -205 1 -254 42
-22 70 -19 144 15 36 16 83 32 103 35 79 14 73 0 73 171 l0 154 -37 -1 c-21 0
-64 -8 -95 -18z"/>
<path d="M6160 6740 l0 -150 28 -12 c92 -37 141 -67 191 -117 220 -216 145
-594 -147 -738 l-76 -38 -130 0 -131 0 -115 46 c-63 26 -207 87 -320 137 -113
49 -304 132 -425 183 l-220 94 -185 3 c-210 4 -236 -2 -265 -65 -22 -45 -13
-94 25 -136 28 -31 31 -32 132 -38 116 -6 29 26 783 -294 423 -180 458 -194
527 -210 283 -64 565 14 751 209 141 148 202 291 214 501 4 92 2 125 -16 200
-27 113 -86 232 -156 318 -87 105 -247 209 -372 241 -100 26 -93 37 -93 -134z"/>
<path d="M5294 6356 c-27 -27 -34 -42 -34 -72 0 -79 64 -138 148 -136 73 1
115 42 115 114 0 73 -63 128 -146 128 -42 0 -54 -5 -83 -34z"/>
<path d="M3692 6139 c-39 -11 -72 -60 -72 -105 0 -43 39 -97 80 -111 20 -7 95
-12 178 -12 l142 -1 36 33 c28 26 37 42 41 77 5 53 -22 105 -63 120 -32 13
-298 11 -342 -1z"/>
<path d="M2073 5361 c-92 -31 -171 -111 -193 -192 -7 -25 -10 -228 -8 -571 l3
-533 25 -50 c34 -71 117 -148 187 -177 l58 -23 685 0 685 0 53 24 c29 13 66
40 82 59 l28 35 33 -37 c60 -69 96 -81 244 -81 72 0 153 2 180 4 28 1 97 0
155 -4 126 -9 202 4 257 44 l38 27 34 -23 c66 -45 119 -53 366 -54 127 0 268
0 314 1 93 2 187 26 241 63 l35 24 35 -23 c129 -86 376 -96 528 -22 63 30 64
30 85 11 43 -38 87 -48 217 -48 143 0 176 11 245 80 l41 40 46 -46 c67 -67
120 -83 263 -77 95 4 120 8 164 30 l51 25 52 -26 c49 -24 63 -26 178 -26 69 0
152 2 185 4 33 2 97 1 141 -4 l81 -8 11 -65 c19 -112 96 -204 195 -234 65 -20
182 -15 249 11 103 40 188 152 188 249 l0 42 58 0 c132 0 260 57 367 165 121
121 173 234 182 395 15 278 -145 525 -395 609 -95 32 -220 37 -313 12 -70 -18
-81 -18 -125 -5 -107 32 -246 9 -314 -52 l-38 -34 -75 40 c-41 22 -106 47
-143 55 -187 40 -400 -4 -507 -104 -31 -29 -21 -32 -123 37 -76 51 -159 72
-278 72 -72 -1 -116 -6 -156 -20 -54 -18 -55 -18 -115 2 -49 16 -77 19 -150
15 -89 -4 -126 -15 -176 -48 -24 -17 -27 -17 -85 12 -81 40 -209 57 -313 40
-80 -12 -172 -49 -208 -83 l-22 -20 -43 31 c-76 55 -149 74 -273 74 -86 0
-123 -4 -171 -21 l-61 -21 -52 19 c-69 27 -179 26 -263 0 -34 -11 -65 -20 -68
-20 -3 0 -5 37 -5 83 -1 186 -85 290 -261 320 -84 15 -191 -3 -254 -41 -56
-34 -114 -110 -131 -171 -8 -25 -13 -79 -11 -118 1 -40 -2 -73 -6 -73 -4 0
-36 10 -72 21 -91 30 -224 30 -302 0 -55 -21 -58 -22 -90 -4 -22 11 -56 17
-101 18 l-67 0 -5 35 c-17 106 -59 179 -136 236 -152 111 -353 93 -485 -44
-42 -44 -75 -124 -81 -202 l-6 -70 -62 0 -62 0 -5 98 c-6 125 -31 184 -103
251 -39 35 -69 52 -112 64 -77 22 -174 21 -240 -2z m217 -618 c-1 -214 -2
-416 -1 -450 l1 -63 240 0 240 0 0 -90 0 -90 -335 0 -335 0 0 540 0 540 96 0
96 0 -2 -387z m2140 42 c0 -190 4 -345 8 -345 4 0 28 21 52 46 25 25 98 95
162 155 l117 109 113 0 113 0 -169 -169 c-167 -167 -169 -170 -153 -193 8 -13
85 -94 169 -180 l154 -158 -124 0 -125 0 -146 150 c-80 83 -152 150 -159 150
-9 0 -12 -38 -12 -150 l0 -150 -95 0 -95 0 0 540 0 540 95 0 95 0 0 -345z
m-1359 299 c39 -20 73 -92 64 -134 -4 -16 -23 -43 -42 -61 -33 -29 -41 -31
-91 -27 -47 4 -60 10 -84 37 -39 43 -39 106 -1 151 43 51 98 63 154 34z m2367
-360 c39 -19 72 -40 72 -45 0 -13 -82 -129 -91 -129 -4 0 -11 5 -15 11 -14 23
-90 49 -147 49 -48 0 -62 -4 -82 -25 -14 -13 -25 -29 -25 -35 0 -22 49 -59 91
-70 145 -36 210 -62 244 -95 55 -56 67 -141 29 -216 -22 -44 -90 -97 -145
-113 -100 -30 -228 -16 -330 34 -83 42 -86 50 -47 103 18 24 38 52 43 61 9 16
13 15 45 -9 73 -54 205 -72 254 -34 35 28 35 64 -1 82 -16 8 -68 24 -117 36
-102 25 -150 48 -188 88 -68 71 -62 171 13 257 90 102 249 122 397 50z m2303
17 c68 -26 132 -79 162 -135 21 -39 22 -55 25 -298 l3 -258 -80 0 -81 0 0 50
c0 28 -4 50 -8 50 -5 0 -21 -13 -36 -29 -51 -53 -118 -76 -226 -76 -86 0 -99
3 -143 28 -63 37 -97 90 -104 161 -17 160 115 258 347 260 52 1 110 -3 128 -7
40 -11 42 4 9 54 -62 95 -199 103 -331 21 -21 -13 -41 -20 -45 -15 -4 4 -22
27 -40 51 l-34 43 24 25 c34 37 104 75 163 91 71 18 198 10 267 -16z m956 -6
c70 -32 137 -96 170 -164 25 -50 28 -66 28 -161 0 -93 -3 -111 -26 -160 -49
-103 -148 -180 -255 -199 -97 -18 -182 5 -265 70 -20 16 -40 29 -43 29 -3 0
-6 -92 -6 -205 l0 -205 -90 0 -90 0 2 503 3 502 85 0 85 0 3 -62 3 -61 47 50
c25 27 59 56 74 64 76 39 188 39 275 -1z m-4824 9 c64 -22 129 -82 158 -146
22 -50 24 -66 27 -300 l4 -248 -91 0 -91 0 0 181 c0 213 -9 258 -61 310 -104
104 -288 50 -328 -96 -6 -22 -11 -120 -11 -217 l0 -178 -90 0 -90 0 2 348 3
347 85 0 85 0 5 -65 5 -65 28 36 c32 42 92 86 133 99 49 14 177 11 227 -6z
m2207 -17 c30 -15 64 -34 74 -42 18 -14 18 -16 -13 -57 -18 -24 -38 -52 -45
-63 -14 -19 -15 -19 -57 10 -38 27 -50 30 -121 30 -86 0 -108 -13 -108 -60 0
-36 32 -55 136 -81 54 -14 117 -33 140 -43 129 -58 139 -234 17 -327 -84 -65
-259 -71 -381 -14 -35 16 -77 39 -93 51 l-30 21 24 31 c13 18 32 47 41 65 l17
32 38 -30 c69 -56 198 -78 261 -45 23 12 30 22 30 45 0 37 -22 49 -144 79 -48
12 -105 30 -126 41 -45 23 -88 72 -96 108 -3 15 -7 35 -9 44 -6 30 14 98 41
138 18 27 46 49 88 70 58 30 66 31 161 28 85 -3 108 -7 155 -31z m886 -3 c71
-35 118 -92 133 -164 6 -28 11 -152 11 -280 l0 -230 -89 0 -90 0 -3 208 -3
209 -28 40 c-37 54 -92 83 -156 83 -89 0 -154 -38 -194 -115 -18 -36 -21 -62
-25 -232 l-4 -193 -84 0 -84 0 0 350 0 350 85 0 85 0 0 -66 0 -66 60 56 c76
70 125 87 241 83 72 -3 96 -8 145 -33z m-3924 -4 l68 0 -1 -335 0 -335 -95 0
-94 0 0 333 c0 184 3 337 7 341 4 4 17 5 28 2 11 -3 50 -6 87 -6z"/>
<path d="M7566 4369 c-113 -27 -157 -115 -82 -165 35 -22 137 -16 191 12 67
34 104 144 53 158 -32 8 -116 6 -162 -5z"/>
<path d="M8419 4577 c-123 -65 -142 -218 -40 -310 146 -132 363 -7 327 188
-21 113 -178 179 -287 122z"/>
<path d="M3433 3552 c-7 -4 -20 -26 -29 -47 -9 -22 -36 -80 -60 -128 -50 -100
-52 -112 -25 -127 16 -8 24 -4 48 24 26 32 33 35 92 37 63 3 63 2 77 -29 10
-24 19 -32 37 -32 35 0 41 27 18 74 -11 23 -40 85 -65 139 -45 97 -59 111 -93
89z m42 -118 c21 -50 20 -54 -19 -54 l-34 0 17 45 c9 25 17 45 18 45 2 0 10
-16 18 -36z"/>
<path d="M3782 3548 c-8 -8 -12 -44 -12 -105 0 -143 34 -193 131 -193 22 0 53
7 69 15 48 25 60 61 60 179 0 97 -2 105 -20 111 -41 13 -50 -10 -50 -121 0
-92 -2 -104 -19 -114 -27 -14 -54 -13 -77 4 -16 12 -20 30 -24 123 -5 99 -7
108 -25 111 -11 1 -26 -3 -33 -10z"/>
<path d="M4118 3549 c-16 -9 -18 -27 -18 -143 0 -141 7 -162 47 -154 14 2 19
14 21 51 3 39 6 47 22 47 12 0 29 -15 44 -38 30 -47 50 -65 73 -60 26 5 27 34
3 68 l-22 30 26 31 c57 68 22 155 -70 170 -67 11 -106 10 -126 -2z m156 -81
c19 -30 -4 -53 -58 -56 l-46 -3 0 41 0 41 46 -3 c31 -2 51 -9 58 -20z"/>
<path d="M4423 3553 c-20 -7 -18 -276 1 -292 9 -8 46 -11 103 -9 88 3 88 3 91
31 l3 27 -70 0 -71 0 0 113 c0 128 -9 150 -57 130z"/>
<path d="M4833 3553 c-39 -8 -73 -49 -73 -88 0 -44 20 -65 94 -95 39 -17 56
-29 54 -39 -3 -16 -10 -16 -108 -9 -29 3 -35 0 -38 -19 -3 -23 17 -38 71 -54
68 -19 147 30 147 91 0 43 -34 77 -95 94 -61 18 -72 28 -50 46 15 12 60 10 96
-5 12 -5 19 2 27 24 9 26 8 32 -7 41 -23 12 -89 20 -118 13z"/>
<path d="M5055 3548 c-3 -8 -4 -77 -3 -153 3 -139 3 -140 27 -143 31 -5 41 12
41 71 l0 47 65 0 64 0 3 -57 c3 -54 5 -58 28 -58 l25 0 3 146 c2 124 0 148
-13 153 -33 12 -45 -4 -45 -60 l0 -54 -65 0 -64 0 -3 58 c-3 54 -4 57 -31 60
-16 2 -29 -2 -32 -10z"/>
<path d="M5472 3544 c-48 -24 -75 -69 -80 -129 -8 -101 51 -167 149 -167 161
2 218 188 87 285 -36 27 -114 32 -156 11z m139 -80 c33 -35 30 -100 -5 -131
-50 -43 -128 -20 -145 43 -26 95 83 160 150 88z"/>
<path d="M5792 3552 c-9 -6 -12 -44 -10 -153 l3 -144 26 -3 c28 -3 39 15 39
71 0 42 31 33 65 -21 22 -35 37 -48 58 -50 39 -5 45 21 14 65 l-26 37 24 22
c42 39 31 133 -18 164 -26 16 -156 25 -175 12z m142 -78 c34 -33 11 -64 -48
-64 -41 0 -41 0 -39 37 1 21 2 39 2 41 3 10 73 -1 85 -14z"/>
<path d="M6060 3545 c-24 -29 -8 -50 43 -53 l47 -3 0 -115 c0 -97 3 -116 16
-121 9 -3 24 -2 33 4 13 8 17 32 19 122 l3 111 34 0 c28 0 65 20 65 35 0 2 -7
11 -16 19 -22 22 -226 23 -244 1z"/>
<path d="M6390 3420 c-34 -77 -60 -147 -56 -155 12 -33 63 -9 79 38 10 26 123
25 131 -1 10 -31 51 -63 70 -56 25 10 18 38 -44 174 -61 134 -65 140 -95 140
-19 0 -31 -20 -85 -140z m120 -31 c0 -5 -16 -9 -35 -9 l-35 0 21 42 21 42 14
-33 c8 -18 14 -37 14 -42z"/>
<path d="M6732 3552 c-9 -7 -12 -44 -10 -153 l3 -144 25 0 25 0 5 139 c4 108
2 143 -8 153 -15 15 -22 16 -40 5z"/>
<path d="M6882 3548 c-17 -17 -17 -269 0 -286 8 -8 46 -12 105 -12 77 0 94 3
102 17 6 11 6 24 0 35 -8 15 -23 18 -84 18 -73 0 -75 1 -75 25 0 24 2 25 71
25 l70 0 -3 28 c-3 26 -5 27 -70 30 -68 3 -68 3 -68 32 l0 30 81 0 80 0 -3 33
-3 32 -95 3 c-66 2 -99 -1 -108 -10z"/>
<path d="M7182 3552 c-9 -7 -12 -44 -10 -153 l3 -144 25 0 c23 0 25 4 28 48 4
64 29 64 70 -3 33 -52 59 -63 82 -35 11 13 9 22 -12 51 l-25 35 28 29 c56 56
30 148 -49 170 -44 12 -122 13 -140 2z m152 -84 c19 -30 -4 -53 -58 -56 l-46
-3 0 41 0 41 46 -3 c31 -2 51 -9 58 -20z"/>
</g>
</svg>
